# xmcd
#
# Track frame offsets:
#  150
#  10502
#  23913
#  36174
#  47809
#  60293
#  72063
#  83523
#  95139
#  107996
#  119846
#  130558
#  139011
#  153480
#  166175
#  176327
#  186229
#  196754
#  206877
#  215943
#  225772
#  235988
#  246234
#  257109
#  267935
#  279597
#  291701
#  302114
#  313140
#  322263
#
# Disc length: 4423 seconds
#
# Revision: 0
# Processed by: cddbd v1.5.1PL2 Copyright (c) Steve Scherf et al.
# Submitted via: Collectorz.com_Music_Collector 6.9
#
DISCID=bd11451e
DTITLE=The Browns - The Best Of (1954 - 19670
DYEAR=2006
DGENRE=Country and Western
TTITLE0=Looking Back To See
TTITLE1=Here Today And Gone Tomorrow
TTITLE2=I Take The Chance
TTITLE3=Just As Long As You Love Me
TTITLE4=Money
TTITLE5=I Heard The Bluebirds Sing
TTITLE6=Would You Care?
TTITLE7=Beyond The Shadow
TTITLE8=The Three Bells
TTITLE9=Scarlet Ribbons (For Her Hair)
TTITLE10=The Old Lamplighter
TTITLE11=Teen-Ex
TTITLE12=Lovely Little Robin
TTITLE13=Margo (The Ninth Of May)
TTITLE14=Send Me The Pillow That You Dream On
TTITLE15=Blue Christmas
TTITLE16=The Whiffenpoof Song
TTITLE17=Ground Hog
TTITLE18=Buttons And Bows
TTITLE19=The Old Master Painter
TTITLE20=Oh No
TTITLE21=Then I'll Stop Loving You
TTITLE22=Everybody's Darlin' Plus Mine
TTITLE23=You Can't Grow Peaches On A Cherry Tree
TTITLE24=Meadowgreen
TTITLE25=I'd Just Be Fool Enough
TTITLE26=Coming Back To You
TTITLE27=I Hear It Now
TTITLE28=Big Daddy
TTITLE29=I Will Bring You Water
EXTD=
EXTT0=
EXTT1=
EXTT2=
EXTT3=
EXTT4=
EXTT5=
EXTT6=
EXTT7=
EXTT8=
EXTT9=
EXTT10=
EXTT11=
EXTT12=
EXTT13=
EXTT14=
EXTT15=
EXTT16=
EXTT17=
EXTT18=
EXTT19=
EXTT20=
EXTT21=
EXTT22=
EXTT23=
EXTT24=
EXTT25=
EXTT26=
EXTT27=
EXTT28=
EXTT29=
PLAYORDER=
